<svg fill="none" xmlns="http://www.w3.org/2000/svg">
  <symbol id="logo" viewBox="0 0 76 24">
    <g>
      <path d="M4.438 22.8785V9.48764L14.097 22.8785H17.921V1.22182H13.455V14.5822L3.825 1.22182H0V22.8796H4.438V22.8785ZM26.788 23.2145C28.658 23.2145 30.026 22.1782 30.585 21.3535V22.8785H34.8V7.62655H30.585V9.15164C30.026 8.328 28.658 7.29055 26.788 7.29055C23.131 7.29055 20.312 10.9211 20.312 15.2531C20.312 19.584 23.132 23.2145 26.788 23.2145ZM27.738 19.0353C25.839 19.0353 24.555 17.4491 24.555 15.2531C24.555 13.056 25.839 11.4698 27.737 11.4698C29.635 11.4698 30.92 13.056 30.92 15.2531C30.92 17.4491 29.635 19.0353 27.737 19.0353H27.738ZM46.039 23.2145C49.696 23.2145 52.516 19.584 52.516 15.2531C52.516 10.9211 49.696 7.29055 46.039 7.29055C44.169 7.29055 42.801 8.328 42.243 9.15164V0H38.028V22.8785H42.243V21.3535C42.801 22.1771 44.169 23.2145 46.039 23.2145ZM45.09 19.0353C43.192 19.0353 41.908 17.4491 41.908 15.2531C41.908 13.056 43.192 11.4698 45.09 11.4698C46.988 11.4698 48.273 13.056 48.273 15.2531C48.273 17.4491 46.988 19.0353 45.09 19.0353ZM59.122 22.8785V0H54.906V22.8785H59.122ZM67.989 23.2145C69.859 23.2145 71.227 22.1782 71.785 21.3535V22.8785H76V7.62655H71.785V9.15164C71.227 8.328 69.859 7.29055 67.989 7.29055C64.332 7.29055 61.512 10.9211 61.512 15.2531C61.512 19.584 64.332 23.2145 67.989 23.2145ZM68.938 19.0353C67.039 19.0353 65.755 17.4491 65.755 15.2531C65.755 13.056 67.039 11.4698 68.938 11.4698C70.836 11.4698 72.12 13.056 72.12 15.2531C72.12 17.4491 70.836 19.0353 68.938 19.0353Z"/>
    </g>
  </symbol>

  <symbol id="lang-more" viewBox="0 0 13 13">
    <g>
      <path d="M11.365 3.7356C11.2897 3.66023 11.2003 3.60043 11.1019 3.55964C11.0034 3.51885 10.8979 3.49785 10.7914 3.49785C10.6849 3.49785 10.5794 3.51885 10.4809 3.55964C10.3825 3.60043 10.2931 3.66023 10.2178 3.7356L6.59945 7.35393C6.57915 7.37411 6.55169 7.38543 6.52307 7.38543C6.49445 7.38543 6.46699 7.37411 6.4467 7.35393L2.82836 3.7356C2.75306 3.66023 2.66363 3.60043 2.56521 3.55964C2.46678 3.51885 2.36128 3.49785 2.25474 3.49785C2.14819 3.49785 2.04269 3.51885 1.94427 3.55964C1.84584 3.60043 1.75642 3.66023 1.68111 3.7356L1.68003 3.73668C1.52794 3.88884 1.4425 4.09517 1.4425 4.31031C1.4425 4.52544 1.52794 4.73177 1.68003 4.88393L6.14011 9.34401C6.24183 9.4453 6.37953 9.50216 6.52307 9.50216C6.66661 9.50216 6.80431 9.4453 6.90603 9.34401L11.3661 4.88393C11.5182 4.73177 11.6036 4.52544 11.6036 4.31031C11.6036 4.09517 11.5182 3.88884 11.3661 3.73668L11.365 3.7356Z"/>
    </g>
  </symbol>

  <symbol id="middle-decore" viewBox="0 0 66 66">
    <g>
      <path fill-rule="evenodd" clip-rule="evenodd" d="M40.4659 62.4109C40.4129 62.4348 40.3587 62.4559 40.3036 62.4743L40.264 62.4848C40.1157 62.5311 39.9613 62.5547 39.8059 62.5548C39.5625 62.5603 39.3212 62.5089 39.1012 62.4046C38.8812 62.3003 38.6886 62.1461 38.5387 61.9542C38.4659 61.8652 38.4026 61.7687 38.35 61.6664L27.8401 43.4636V49.5475C27.8401 50.0623 27.5959 50.5441 27.1894 50.849L27.0283 50.9546L12.9492 59.0832C12.702 59.2256 12.4217 59.3005 12.1364 59.3003C11.8512 59.3001 11.5709 59.2249 11.3239 59.0822C11.0769 58.9395 10.8718 58.7343 10.7291 58.4873C10.5865 58.2402 10.5113 57.96 10.5112 57.6747V13.0112C10.5112 12.342 10.8676 11.847 11.3494 11.5869L25.4034 3.47554C25.7763 3.2609 26.219 3.20276 26.6346 3.31384C27.0503 3.42493 27.4049 3.69618 27.621 4.06822L38.1744 22.275V13.0112C38.1744 12.4964 38.4199 12.0146 38.8278 11.7097L38.9875 11.6041L53.0667 3.47554C53.3138 3.33313 53.5942 3.25825 53.8794 3.25842C54.1647 3.25859 54.4449 3.3338 54.6919 3.47651C54.939 3.61921 55.1441 3.82438 55.2868 4.07143C55.4294 4.31847 55.5046 4.5987 55.5047 4.88398V52.7987C55.5047 53.3795 55.1945 53.9154 54.6916 54.2058L40.6956 62.2881C40.6256 62.3331 40.5524 62.3728 40.4765 62.4069V62.4056L40.4659 62.4109ZM52.2535 7.69954L41.4256 13.9511V58.1103L52.2535 51.8588V7.69954ZM25.6212 7.10158L14.3563 13.6052L38.1744 54.8592V28.7601L25.6225 7.10158H25.6212ZM13.761 19.0793V54.8592L24.589 48.6077V37.8325L22.6697 34.5087L13.761 19.0806V19.0793Z"/>
    </g>
  </symbol>

  <symbol id="instagram" viewBox="0 0 16 16">
    <g>
      <path d="M8 1.4416C10.136 1.4416 10.3888 1.4496 11.232 1.488C12.0128 1.524 12.436 1.6544 12.7184 1.7632C13.0912 1.9088 13.3584 2.0824 13.6384 2.3616C13.9184 2.6416 14.0912 2.9088 14.2368 3.2816C14.3456 3.564 14.4768 3.9872 14.512 4.7672C14.5504 5.6112 14.5584 5.8632 14.5584 8C14.5584 10.136 14.5504 10.3888 14.512 11.232C14.476 12.0128 14.3456 12.436 14.2368 12.7184C14.0912 13.0912 13.9176 13.3584 13.6384 13.6384C13.3584 13.9184 13.0912 14.0912 12.7184 14.2368C12.436 14.3464 12.0128 14.4768 11.2328 14.512C10.3896 14.5504 10.1368 14.5584 8 14.5584C5.864 14.5584 5.6104 14.5504 4.768 14.512C3.9872 14.476 3.564 14.3464 3.2816 14.2368C2.93407 14.1086 2.61969 13.9041 2.3616 13.6384C2.09589 13.3803 1.89141 13.0659 1.7632 12.7184C1.6536 12.436 1.5232 12.0128 1.488 11.2328C1.4496 10.3888 1.4416 10.1368 1.4416 8C1.4416 5.864 1.4496 5.6112 1.488 4.768C1.524 3.9872 1.6536 3.564 1.7632 3.2816C1.9088 2.9088 2.0824 2.6416 2.3616 2.3616C2.6416 2.0816 2.9088 1.9088 3.2816 1.7632C3.564 1.6544 3.9872 1.5232 4.7672 1.488C5.6112 1.4496 5.8632 1.4416 8 1.4416ZM8 0C5.8272 0 5.5552 0.0096 4.7016 0.048C3.8504 0.088 3.2688 0.2224 2.76 0.42C2.226 0.620699 1.74222 0.935485 1.3424 1.3424C0.935485 1.74222 0.620699 2.226 0.42 2.76C0.2224 3.2688 0.0872 3.8504 0.048 4.7016C0.0088 5.5552 0 5.8272 0 8C0 10.1728 0.0088 10.4448 0.048 11.2984C0.0872 12.1496 0.2224 12.7312 0.42 13.24C0.620699 13.774 0.935485 14.2578 1.3424 14.6576C1.74222 15.0645 2.226 15.3793 2.76 15.58C3.2688 15.7776 3.8504 15.9128 4.7016 15.952C5.5552 15.9912 5.8272 16 8 16C10.1728 16 10.4448 15.9912 11.2984 15.952C12.1496 15.9128 12.7312 15.7776 13.24 15.58C13.774 15.3793 14.2578 15.0645 14.6576 14.6576C15.0645 14.2578 15.3793 13.774 15.58 13.24C15.7776 12.7312 15.9128 12.1496 15.952 11.2984C15.9904 10.4448 16 10.1728 16 8C16 5.8272 15.9904 5.5552 15.952 4.7016C15.9128 3.8504 15.7776 3.2688 15.58 2.76C15.3793 2.226 15.0645 1.74222 14.6576 1.3424C14.2578 0.935485 13.774 0.620699 13.24 0.42C12.7312 0.2224 12.1496 0.0872 11.2984 0.048C10.4448 0.0096 10.1728 0 8 0ZM8 3.892C6.91049 3.892 5.8656 4.32481 5.09521 5.09521C4.32481 5.8656 3.892 6.91049 3.892 8C3.892 9.08951 4.32481 10.1344 5.09521 10.9048C5.8656 11.6752 6.91049 12.108 8 12.108C9.08951 12.108 10.1344 11.6752 10.9048 10.9048C11.6752 10.1344 12.108 9.08951 12.108 8C12.108 6.91049 11.6752 5.8656 10.9048 5.09521C10.1344 4.32481 9.08951 3.892 8 3.892ZM8 10.6664C7.29283 10.6664 6.61462 10.3855 6.11457 9.88543C5.61452 9.38538 5.3336 8.70717 5.3336 8C5.3336 7.29283 5.61452 6.61462 6.11457 6.11457C6.61462 5.61452 7.29283 5.3336 8 5.3336C8.70717 5.3336 9.38538 5.61452 9.88543 6.11457C10.3855 6.61462 10.6664 7.29283 10.6664 8C10.6664 8.70717 10.3855 9.38538 9.88543 9.88543C9.38538 10.3855 8.70717 10.6664 8 10.6664ZM13.2304 3.7296C13.2304 3.98421 13.1293 4.22839 12.9492 4.40842C12.7692 4.58846 12.525 4.6896 12.2704 4.6896C12.0158 4.6896 11.7716 4.58846 11.5916 4.40842C11.4115 4.22839 11.3104 3.98421 11.3104 3.7296C11.3104 3.47499 11.4115 3.23081 11.5916 3.05078C11.7716 2.87074 12.0158 2.7696 12.2704 2.7696C12.525 2.7696 12.7692 2.87074 12.9492 3.05078C13.1293 3.23081 13.2304 3.47499 13.2304 3.7296Z"/>
    </g>
  </symbol>

  <symbol id="facebook" viewBox="0 0 16 16">
    <g>
      <path d="M9.193 16.0001V8.70214H11.551L11.904 5.85714H9.193V4.04114C9.193 3.21814 9.413 2.65714 10.55 2.65714L12 2.65614V0.112144C11.2984 0.0347605 10.5929 -0.00263327 9.887 0.000144017C7.796 0.000144017 6.365 1.32614 6.365 3.76014V5.85714H4V8.70214H6.365V16.0001H9.193Z"/>
    </g>
  </symbol>

  <symbol id="twitter" viewBox="0 0 16 16">
    <g>
      <path d="M16.5 2.657C15.8642 2.94245 15.1889 3.13023 14.497 3.214C15.2278 2.76896 15.7725 2.07401 16.03 1.258C15.356 1.663 14.61 1.958 13.816 2.116C13.4917 1.76424 13.098 1.48348 12.6599 1.2914C12.2217 1.09933 11.7484 1.00011 11.27 1C9.344 1 7.782 2.582 7.782 4.534C7.782 4.811 7.813 5.081 7.872 5.34C4.974 5.192 2.404 3.785 0.683 1.647C0.372607 2.18771 0.209833 2.80053 0.211 3.424C0.211 4.65 0.827 5.732 1.763 6.365C1.20833 6.34765 0.666157 6.19598 0.183 5.923V5.968C0.183 7.68 1.385 9.109 2.98 9.433C2.46685 9.57532 1.92762 9.5962 1.405 9.494C1.849 10.898 3.137 11.92 4.664 11.948C3.94353 12.5226 3.11585 12.948 2.22924 13.1994C1.34263 13.4507 0.414842 13.523 -0.5 13.412C1.09006 14.4491 2.94763 15.0008 4.846 15C11.262 15 14.77 9.614 14.77 4.944C14.77 4.791 14.766 4.638 14.76 4.487C15.4438 3.98485 16.0329 3.36523 16.5 2.657Z"/>
    </g>
  </symbol>

  <symbol id="in" viewBox="0 0 16 16">
    <g>
      <path d="M15.0969 9.87267V15.542H12.0542V10.2522C12.0542 8.92334 11.6142 8.01667 10.5137 8.01667C9.67285 8.01667 9.17241 8.62823 8.95285 9.21934C8.87197 9.43089 8.85152 9.72512 8.85152 10.0202V15.542H5.80885C5.80885 15.542 5.84974 6.58289 5.80885 5.65489H8.85152V7.05667L8.83108 7.08867H8.85152V7.05667C9.25597 6.38378 9.97774 5.42289 11.5937 5.42289C13.5955 5.42289 15.0969 6.83534 15.0969 9.87267ZM2.62574 0.888672C1.58397 0.888672 0.903076 1.62645 0.903076 2.59623C0.903076 3.54556 1.56441 4.31623 2.58485 4.31623H2.6053C3.66663 4.31623 4.32619 3.54556 4.32619 2.59623C4.30663 1.62645 3.66663 0.888672 2.62574 0.888672ZM1.08441 15.542H4.12619V5.65489H1.08441V15.542Z"/>
    </g>
  </symbol>
</svg>